<?xml version="1.0" encoding="UTF-8"?><svg width="24px" height="24px" viewBox="0 0 24 24" version="1.1" xmlns="http://www.w3.org/2000/svg" xmlns:xlink="http://www.w3.org/1999/xlink"><g stroke="none" stroke-width="1" fill="none" fill-rule="evenodd"><g class="social-icon-cutout" transform="translate(-163.000000, -79.000000)" fill="#D8D8D8"><path d="M175,103 C168.372583,103 163,97.627417 163,91 C163,84.372583 168.372583,79 175,79 C181.627417,79 187,84.372583 187,91 C187,97.627417 181.627417,103 175,103 Z M182,97 L182,92.2691991 C182,89.9454731 181.493447,88.16 178.748516,88.16 C177.429853,88.16 176.546684,88.8749926 176.18428,89.5528297 L176.14672,89.5528297 L176.14672,88.3738953 L173.55,88.3738953 L173.55,97 L176.25737,97 L176.25737,92.733141 C176.25737,91.6084335 176.472579,90.5178689 177.881589,90.5178689 C179.272327,90.5178689 179.290599,91.8042531 179.290599,92.8044394 L179.290599,97 L182,97 Z M170.561511,87.12 C171.420846,87.12 172.12,86.420846 172.12,85.5594963 C172.12,84.699154 171.420846,84 170.561511,84 C169.697139,84 169,84.699154 169,85.5594963 C169,86.420846 169.697139,87.12 170.561511,87.12 Z M169.26,97 L171.99,97 L171.99,88.29 L169.26,88.29 L169.26,97 Z"/></g></g></svg>